<?xml version="1.0" encoding="utf-8"?>
<!-- Generator: Adobe Illustrator 24.1.2, SVG Export Plug-In . SVG Version: 6.00 Build 0)  -->
<svg version="1.1" id="Layer_1" xmlns="http://www.w3.org/2000/svg" xmlns:xlink="http://www.w3.org/1999/xlink" x="0px" y="0px"
	 viewBox="0 0 101 30.57" style="enable-background:new 0 0 101 30.57;" xml:space="preserve">
<style type="text/css">
	.st0{fill:#EE4036;}
</style>
<path id="Path_19" class="st0" d="M7.6,24.76c-0.18-0.02-0.36-0.09-0.51-0.2l-5.81-5.6c-0.23-0.18-0.43-0.38-0.61-0.61
	c-0.14-0.15-0.26-0.32-0.36-0.51c-0.11-0.21-0.16-0.44-0.15-0.67v-0.81c0-0.23,0.05-0.46,0.15-0.66c0.15-0.2,0.25-0.41,0.36-0.51
	l0.61-0.61l5.76-5.76c0.15-0.1,0.33-0.16,0.51-0.15c0.19-0.01,0.38,0.06,0.51,0.2c0.12,0.15,0.19,0.32,0.2,0.51v1.17
	c0,0.1-0.05,0.15-0.05,0.2c-0.01,0.08-0.05,0.14-0.1,0.2C8.08,11,8.04,11.05,8,11.1c0,0.05-0.05,0.1-0.15,0.2L7.7,11.45
	c-0.08,0.05-0.15,0.12-0.2,0.2c-0.1,0.1-0.2,0.15-0.2,0.2l-4.49,4.66c-0.1,0.1-0.2,0.2-0.2,0.31c0.01,0.13,0.08,0.25,0.2,0.31
	l4.48,4.43c0.06,0.06,0.12,0.11,0.2,0.15c0.1,0.1,0.15,0.15,0.2,0.15l0.15,0.15l0.15,0.15c0.05,0.05,0.05,0.1,0.1,0.15
	s0.05,0.15,0.1,0.2c0,0.05,0.05,0.15,0.05,0.2V24c0.01,0.19-0.06,0.38-0.2,0.51C7.95,24.66,7.78,24.76,7.6,24.76z"/>
<path id="Path_20" class="st0" d="M13.2,30.57c-0.1,0-0.2-0.15-0.2-0.41v-0.15l4.69-29.4C17.79,0.2,17.89,0,18.04,0h2.75
	C20.95,0,21,0.15,21,0.41v0.15l-4.69,29.4c-0.1,0.41-0.2,0.61-0.36,0.61L13.2,30.57z"/>
<path id="Path_21" class="st0" d="M25.43,27.16c-0.15,0.01-0.3-0.04-0.41-0.15c-0.1-0.1-0.1-0.31-0.1-0.61V4.23
	c-0.02-0.21,0.02-0.42,0.1-0.61c0.11-0.11,0.26-0.17,0.41-0.15h2.9c0.15-0.01,0.3,0.04,0.41,0.15c0.1,0.1,0.1,0.31,0.1,0.61v8.76
	c-0.01,0.09,0,0.18,0.05,0.26c0.05,0.1,0.1,0.1,0.15,0.1H35c0.05,0,0.1-0.05,0.15-0.1c0.05-0.1,0.1-0.15,0.1-0.26V4.23
	c-0.03-0.22,0.03-0.43,0.15-0.61c0.11-0.11,0.26-0.17,0.41-0.15h2.96c0.14-0.01,0.27,0.04,0.36,0.15c0.1,0.1,0.1,0.31,0.1,0.61V26.4
	c0.02,0.21-0.02,0.42-0.1,0.61c-0.09,0.1-0.22,0.16-0.36,0.15h-2.95c-0.09,0.01-0.18,0-0.25-0.05l-0.2-0.2
	c-0.07-0.16-0.1-0.33-0.1-0.51V16.3c0-0.26-0.05-0.36-0.2-0.36h-6.02c-0.15,0-0.2,0.1-0.2,0.36V26.4c0.03,0.22-0.03,0.43-0.15,0.61
	c-0.11,0.11-0.26,0.17-0.41,0.15L25.43,27.16z"/>
<path id="Path_22" class="st0" d="M46.63,27.16c-0.14,0.01-0.27-0.04-0.36-0.15c-0.12-0.18-0.18-0.4-0.15-0.61V6.52
	c0-0.25-0.05-0.41-0.2-0.41h-3.77c-0.05,0-0.1-0.05-0.15-0.15c-0.05-0.15-0.07-0.3-0.05-0.46V4.18c-0.02-0.19,0.02-0.39,0.1-0.56
	c0.11-0.11,0.26-0.17,0.41-0.15h11.26c0.14-0.01,0.27,0.04,0.36,0.15c0.1,0.1,0.1,0.31,0.1,0.56V5.5c0.01,0.18-0.02,0.35-0.1,0.51
	c-0.12,0.08-0.26,0.11-0.41,0.1h-3.41c-0.15,0-0.2,0.15-0.2,0.41V26.4c0.02,0.23-0.03,0.46-0.15,0.66
	c-0.11,0.11-0.26,0.17-0.41,0.15h-2.86V27.16z"/>
<path id="Path_23" class="st0" d="M57.07,27.16c-0.31,0-0.46-0.26-0.46-0.81v-0.1l0.92-21.91c0-0.61,0.2-0.92,0.51-0.92h3.16
	c0.18,0,0.36,0.05,0.51,0.15c0.18,0.15,0.29,0.37,0.31,0.61l3.36,15.59c0.01,0.04,0.02,0.07,0.05,0.1h0.1c0.05,0,0.05-0.05,0.05-0.1
	l3.37-15.49c0.1-0.51,0.36-0.81,0.76-0.81h3.21c0.31,0,0.46,0.36,0.46,0.92l0.92,21.91v0.1c0,0.51-0.15,0.81-0.51,0.81H71.6
	c-0.31,0-0.51-0.31-0.51-0.87L70.48,9.32c0-0.05,0-0.1-0.05-0.1c-0.05,0-0.05,0-0.1,0.05L66.71,26.4c-0.1,0.51-0.36,0.81-0.66,0.81
	h-1.27c-0.31,0-0.56-0.26-0.66-0.81L60.59,9.38c0-0.05-0.05-0.1-0.1-0.05v0.1l-0.66,16.87c0,0.61-0.15,0.87-0.46,0.87L57.07,27.16z"
	/>
<path id="Path_24" class="st0" d="M79.09,27.16c-0.14,0.01-0.27-0.04-0.36-0.15c-0.1-0.1-0.1-0.31-0.1-0.61V4.23
	c-0.02-0.21,0.02-0.42,0.1-0.61c0.09-0.1,0.22-0.16,0.36-0.15h2.96c0.14-0.01,0.27,0.04,0.36,0.15c0.1,0.1,0.1,0.31,0.1,0.61V24.2
	c0,0.25,0.1,0.36,0.25,0.36h5.2c0.13-0.01,0.25,0.03,0.36,0.1c0.1,0.1,0.1,0.26,0.1,0.51v1.33c0.01,0.19-0.03,0.38-0.1,0.56
	c-0.1,0.09-0.23,0.12-0.36,0.1H79.09z"/>
<path id="Path_25" class="st0" d="M93,24.76c-0.18,0.02-0.35-0.06-0.46-0.2c-0.12-0.15-0.19-0.32-0.2-0.51v-1.13
	c-0.01-0.07,0.01-0.14,0.05-0.2c0-0.05,0.05-0.1,0.05-0.15c0.04-0.04,0.06-0.1,0.05-0.15c0-0.05,0.05-0.1,0.1-0.15s0.1-0.1,0.1-0.15
	s0.05-0.05,0.1-0.15l0.15-0.15c0.05,0,0.1-0.05,0.15-0.15c0.1-0.05,0.15-0.1,0.15-0.15l4.48-4.59c0.09-0.08,0.15-0.19,0.15-0.31
	c-0.01-0.13-0.08-0.25-0.2-0.31l-4.43-4.44c-0.08-0.08-0.16-0.14-0.26-0.2c-0.1-0.1-0.2-0.15-0.2-0.2l-0.15-0.15
	c-0.1-0.1-0.15-0.15-0.15-0.2s-0.05-0.1-0.1-0.2s-0.05-0.15-0.1-0.26V9.27c-0.01-0.38,0.29-0.69,0.66-0.71
	c0.19,0.01,0.37,0.08,0.51,0.2l5.81,5.66l0.61,0.61c0.12,0.14,0.22,0.29,0.3,0.46c0.1,0.21,0.15,0.43,0.15,0.66v1.07
	c0,0.05-0.05,0.15-0.05,0.2c-0.03,0.06-0.05,0.13-0.05,0.2c0,0.05-0.05,0.1-0.1,0.2c-0.03,0.06-0.06,0.11-0.1,0.15
	c-0.04,0.07-0.09,0.14-0.15,0.2l-0.15,0.15l-0.2,0.2c-0.1,0.1-0.2,0.15-0.2,0.2l-5.78,5.79C93.41,24.66,93.21,24.75,93,24.76z"/>
</svg>
